HIERARCHY
ROOT Hips
{
	OFFSET 0.00000 0.00000 0.00000
	CHANNELS 6 Xposition Yposition Zposition Zrotation Yrotation Xrotation 
	JOINT LHipJoint
	{
		OFFSET 0 0 0
		CHANNELS 3 Zrotation Yrotation Xrotation
		JOINT LeftUpLeg
		{
			OFFSET 1.57338 -1.94743 0.52196
			CHANNELS 3 Zrotation Yrotation Xrotation
			JOINT LeftLeg
			{
				OFFSET 2.60333 -7.15259 0.00000
				CHANNELS 3 Zrotation Yrotation Xrotation
				JOINT LeftFoot
				{
					OFFSET 2.77855 -7.63400 0.00000
					CHANNELS 3 Zrotation Yrotation Xrotation
					JOINT LeftToeBase
					{
						OFFSET 0.19847 -0.54529 2.28466
						CHANNELS 3 Zrotation Yrotation Xrotation
						End Site
						{
							OFFSET 0.00000 -0.00000 1.17993
						}
					}
				}
			}
		}
	}
	JOINT RHipJoint
	{
		OFFSET 0 0 0
		CHANNELS 3 Zrotation Yrotation Xrotation
		JOINT RightUpLeg
		{
			OFFSET -1.61527 -1.94743 0.52196
			CHANNELS 3 Zrotation Yrotation Xrotation
			JOINT RightLeg
			{
				OFFSET -2.53829 -6.97390 0.00000
				CHANNELS 3 Zrotation Yrotation Xrotation
				JOINT RightFoot
				{
					OFFSET -2.80762 -7.71387 0.00000
					CHANNELS 3 Zrotation Yrotation Xrotation
					JOINT RightToeBase
					{
						OFFSET -0.30536 -0.83898 2.28801
						CHANNELS 3 Zrotation Yrotation Xrotation
						End Site
						{
							OFFSET -0.00000 -0.00000 1.21323
						}
					}
				}
			}
		}
	}
	JOINT LowerBack
	{
		OFFSET 0 0 0
		CHANNELS 3 Zrotation Yrotation Xrotation
		JOINT Spine
		{
			OFFSET -0.04381 1.99497 -0.19778
			CHANNELS 3 Zrotation Yrotation Xrotation
			JOINT Spine1
			{
				OFFSET -0.01959 2.01295 -0.04372
				CHANNELS 3 Zrotation Yrotation Xrotation
				JOINT Neck
				{
					OFFSET 0 0 0
					CHANNELS 3 Zrotation Yrotation Xrotation
					JOINT Neck1
					{
						OFFSET -0.05459 1.76913 0.09708
						CHANNELS 3 Zrotation Yrotation Xrotation
						JOINT Head
						{
							OFFSET 0.09461 1.77368 -0.11172
							CHANNELS 3 Zrotation Yrotation Xrotation
							End Site
							{
								OFFSET 0.03812 1.78157 -0.04834
							}
						}
					}
				}
				JOINT LeftShoulder
				{
					OFFSET 0 0 0
					CHANNELS 3 Zrotation Yrotation Xrotation
					JOINT LeftArm
					{
						OFFSET 3.50922 1.24034 -0.28866
						CHANNELS 3 Zrotation Yrotation Xrotation
						JOINT LeftForeArm
						{
							OFFSET 5.40188 -0.00000 0.00000
							CHANNELS 3 Zrotation Yrotation Xrotation
							JOINT LeftHand
							{
								OFFSET 3.68559 -0.00000 0.00000
								CHANNELS 3 Zrotation Yrotation Xrotation
								JOINT LeftFingerBase
								{
									OFFSET 0 0 0
									CHANNELS 3 Zrotation Yrotation Xrotation
									JOINT LeftHandIndex1
									{
										OFFSET 0.61753 -0.00000 0.00000
										CHANNELS 3 Zrotation Yrotation Xrotation
										End Site
										{
											OFFSET 0.49787 -0.00000 0.00000
										}
									}
								}
								JOINT LThumb
								{
									OFFSET 0 0 0
									CHANNELS 3 Zrotation Yrotation Xrotation
									End Site
									{
										OFFSET 0.50547 -0.00000 0.50547
									}
								}
							}
						}
					}
				}
				JOINT RightShoulder
				{
					OFFSET 0 0 0
					CHANNELS 3 Zrotation Yrotation Xrotation
					JOINT RightArm
					{
						OFFSET -2.95373 1.39649 -0.27346
						CHANNELS 3 Zrotation Yrotation Xrotation
						JOINT RightForeArm
						{
							OFFSET -6.10670 -0.00000 -0.00000
							CHANNELS 3 Zrotation Yrotation Xrotation
							JOINT RightHand
							{
								OFFSET -3.63052 -0.00000 0.00000
								CHANNELS 3 Zrotation Yrotation Xrotation
								JOINT RightFingerBase
								{
									OFFSET 0 0 0
									CHANNELS 3 Zrotation Yrotation Xrotation
									JOINT RightHandIndex1
									{
										OFFSET -0.58385 -0.00000 0.00000
										CHANNELS 3 Zrotation Yrotation Xrotation
										End Site
										{
											OFFSET -0.47071 -0.00000 0.00000
										}
									}
								}
								JOINT RThumb
								{
									OFFSET 0 0 0
									CHANNELS 3 Zrotation Yrotation Xrotation
									End Site
									{
										OFFSET -0.47790 -0.00000 0.47790
									}
								}
							}
						}
					}
				}
			}
		}
	}
}
MOTION
Frames: 16
Frame Time: 0.0266667
0.00 0.00 0.00 -2.9361 -0.9050 -16.5169 0.0000 0.0000 0.0000 -2.8410 7.4621 -34.7158 10.4379 17.6488 60.9422 -1.6877 -22.3116 6.8387 0.4527 4.3164 11.9686 0.0000 0.0000 0.0000 0.5722 7.8529 -49.8739 -17.3029 -19.8247 82.0920 3.4356 -38.9209 11.3822 -2.8450 -10.4397 30.4128 -7.2460 3.4793 23.1950 -3.2357 3.0749 13.4604 -0.0487 1.2485 1.7962 -6.5731 0.7255 0.6682 4.1047 0.6387 23.3624 2.4923 0.0662 6.9705 0.0000 -0.0000 0.0000 -54.5061 -0.2589 72.9207 73.7628 -58.9800 -45.9864 -0.0000 0.0000 -1.6946 55.5865 16.1327 22.0777 -7.1250 0.0000 -0.0000 30.6932 54.3059 7.5596 0.0000 -0.0000 0.0000 65.9115 -4.5472 66.4688 -89.7880 59.9998 -59.8164 0.0000 0.0000 6.5786 -58.7874 13.2730 -20.7523 7.1250 -0.0000 -0.0000 -19.9695 -6.6592 -18.7239
0.00 0.00 0.00 -2.6834 0.9581 -22.5697 0.0000 0.0000 0.0000 -3.4219 4.6815 -29.3612 10.5403 17.7027 61.2795 -1.3584 -20.1474 6.1574 0.3566 3.8365 10.6172 0.0000 0.0000 0.0000 2.1820 4.1803 -58.9624 -22.6806 -19.8268 97.8594 4.4056 -38.3509 4.0463 -2.6123 -10.0394 29.1043 -6.6117 2.6960 24.2613 -3.1496 2.0886 13.1661 -0.1324 0.8166 1.0016 -7.7688 -0.4108 -0.1872 4.3103 -0.8068 21.8849 2.6645 -0.6774 6.7306 0.0000 0.0000 0.0000 -55.2601 0.2401 73.4868 71.0982 -58.6060 -43.7071 -0.0000 0.0000 -4.3509 53.9945 14.7791 19.3428 -7.1250 0.0000 -0.0000 27.7887 51.9242 5.0618 0.0000 0.0000 0.0000 66.2080 -5.6966 66.2707 -94.3139 59.9296 -63.7350 0.0000 0.0000 9.6651 -60.4375 14.4704 -23.7754 7.1250 -0.0000 -0.0000 -20.5225 -3.7889 -20.5084
0.00 0.00 0.00 -2.5800 3.1422 -26.3383 0.0000 0.0000 0.0000 -4.8790 3.1826 -26.3174 10.5786 17.7226 61.4054 -1.1497 -18.5767 6.4838 0.4783 4.4352 12.3043 0.0000 0.0000 0.0000 1.9200 1.4578 -69.8165 -27.7277 -18.5034 113.1506 2.8380 -33.7736 7.3534 -1.6636 -8.1271 23.1008 -6.3725 2.0749 25.1310 -2.9365 1.2950 13.3062 0.1289 0.4343 0.7755 -9.8251 -2.8357 -0.8370 4.4724 -3.8956 17.3651 2.8375 -2.2269 5.6609 0.0000 0.0000 0.0000 -55.0165 0.3802 74.7280 69.4446 -58.3417 -42.2976 -0.0000 0.0000 -5.1279 52.9556 14.2659 18.0812 -7.1250 0.0000 -0.0000 26.2571 50.9071 4.0620 0.0000 0.0000 0.0000 65.6015 -5.8963 66.2116 -99.4905 59.6569 -68.2095 0.0000 0.0000 16.1202 -64.0932 17.7990 -32.1834 7.1250 -0.0000 -0.0000 -21.4980 4.1846 -24.7663
0.00 0.00 0.00 -3.9571 4.2225 -28.1312 0.0000 0.0000 0.0000 -4.0353 3.0427 -25.4941 10.6140 17.7410 61.5216 -1.1134 -18.3362 8.3583 0.5307 4.6681 12.9644 0.0000 0.0000 0.0000 7.9355 -2.0995 -78.0516 -31.9017 -16.1911 127.0839 1.8184 -31.4605 11.5028 -1.1611 -6.8408 19.2446 -5.6570 1.2892 25.3613 -2.7026 0.4243 13.1873 0.1853 0.0325 0.5573 -12.8151 -5.7320 -1.6730 7.0176 -7.7958 12.4774 3.8593 -4.0680 4.7987 -0.0000 -0.0000 0.0000 -54.1778 0.8390 76.0535 68.6715 -58.2094 -41.6400 -0.0000 0.0000 -6.2273 53.9662 14.7297 19.2657 -7.1250 0.0000 -0.0000 27.7260 51.8467 4.9935 -0.0000 -0.0000 0.0000 66.7650 -6.4265 65.3823 -102.5475 59.3967 -70.8445 0.0000 0.0000 21.4530 -65.3824 18.0221 -34.0273 7.1250 -0.0000 -0.0000 -22.1102 5.6413 -26.1139
0.00 0.00 0.00 -4.2158 4.1750 -28.0761 0.0000 0.0000 0.0000 -3.8040 3.2357 -25.2473 10.3999 17.6287 60.8167 -1.1049 -18.2991 8.7262 0.6094 4.9965 13.8986 0.0000 0.0000 0.0000 10.7217 -10.9552 -80.9499 -35.3583 -12.9686 140.7490 0.3522 -24.9073 15.1558 -1.1895 -6.9210 19.4814 -5.0035 1.1263 26.5184 -2.6367 0.2820 13.3355 -0.0886 -0.0013 0.1805 -13.1872 -7.8492 -3.2337 9.5799 -10.4702 6.7569 4.5116 -5.2032 3.7412 0.0000 0.0000 0.0000 -54.2449 0.9586 75.4676 68.5558 -58.1891 -41.5417 -0.0000 0.0000 -6.4324 54.4793 15.3592 20.3573 -7.1250 0.0000 -0.0000 28.7362 52.8798 5.9660 0.0000 0.0000 0.0000 67.1558 -6.1841 65.1762 -101.6895 59.4773 -70.1056 0.0000 0.0000 21.5655 -66.6446 18.1542 -35.8124 7.1250 -0.0000 -0.0000 -22.7346 7.0124 -27.4693
0.00 0.00 0.00 -1.6662 4.2816 -25.4748 0.0000 0.0000 0.0000 -6.6115 3.6891 -27.9494 10.7292 17.8000 61.8991 -1.1264 -18.3935 6.5675 0.6977 5.3395 14.8794 0.0000 0.0000 0.0000 6.8080 -22.3106 -81.8986 -36.8363 -10.9555 147.8702 -0.0153 -2.4619 2.6158 -0.0400 -1.2902 3.5477 -7.0217 1.2199 26.4002 -2.9698 -0.0348 13.7476 0.7638 -0.2747 0.7630 -14.6067 -9.3372 -2.8428 14.5249 -12.2471 -0.9236 6.2593 -6.0152 2.0233 -0.0000 0.0000 0.0000 -55.1084 1.1671 74.3696 68.7011 -58.2145 -41.6652 -0.0000 0.0000 -6.0136 55.7692 15.4643 21.3998 -7.1250 0.0000 -0.0000 30.4849 53.4354 6.8218 -0.0000 0.0000 0.0000 65.5377 -3.9461 67.2338 -100.4264 59.5852 -69.0169 0.0000 0.0000 18.3398 -66.9685 14.6163 -30.6924 7.1250 -0.0000 -0.0000 -23.8983 1.3337 -26.8839
0.00 0.00 0.00 -0.9275 3.0275 -22.8225 0.0000 0.0000 0.0000 -6.6840 5.0642 -31.0537 11.2760 18.0675 63.6747 -1.2736 -19.5840 5.4198 0.7147 5.4026 15.0606 0.0000 0.0000 0.0000 9.1875 -22.6579 -80.3375 -36.7370 -11.1091 147.3512 -0.3508 -1.7477 -11.9641 -0.4014 -4.0675 11.2666 -5.7475 0.3355 26.1188 -2.5307 -0.8550 14.0612 0.7190 -0.6586 1.2554 -15.5917 -10.6000 -2.6697 17.8796 -13.5740 -5.9590 7.4683 -6.7228 1.0779 -0.0000 -0.0000 0.0000 -54.1025 -0.0395 76.2443 67.3042 -57.9613 -40.4794 -0.0000 0.0000 -6.2525 59.3023 17.7564 27.1884 -7.1250 0.0000 -0.0000 37.6197 57.8374 13.0245 -0.0000 -0.0000 0.0000 65.8301 -1.6536 67.5151 -98.4886 59.7260 -67.3445 0.0000 0.0000 15.3176 -66.2969 14.7843 -30.1665 7.1250 -0.0000 -0.0000 -23.5064 1.0321 -26.2254
0.00 0.00 0.00 0.4180 4.4910 -20.1776 0.0000 0.0000 0.0000 -8.2301 4.4697 -33.0824 11.4932 18.1681 64.3731 -0.4094 -17.7705 -8.2151 0.2675 -3.3274 -9.1916 0.0000 0.0000 0.0000 10.5942 -22.1057 -81.0312 -36.8214 -10.9786 147.7922 -0.7510 -3.8045 -18.1832 -0.6251 -5.0592 14.0775 -4.0839 -0.4067 25.8632 -2.0774 -1.3725 14.6154 0.3805 -0.8442 1.9740 -16.2401 -11.0529 -2.8709 18.6798 -14.1084 -6.3930 7.7638 -6.9856 1.1943 0.0000 0.0000 0.0000 -53.8235 -1.5736 77.1944 66.5516 -57.8170 -39.8419 -0.0000 0.0000 -6.0393 59.7779 18.2921 28.3153 -7.1250 0.0000 -0.0000 38.9840 58.7332 14.4650 0.0000 0.0000 0.0000 63.8669 1.3344 69.5195 -100.2167 59.6019 -68.8361 0.0000 0.0000 13.3337 -67.9961 15.5034 -33.4827 7.1250 -0.0000 -0.0000 -24.1723 3.8776 -28.3285
0.00 0.00 0.00 0.5991 2.5832 -24.3798 0.0000 0.0000 0.0000 -5.8410 5.0774 -27.1360 11.0234 17.9465 62.8574 -0.0735 -9.0870 -4.9100 0.0973 2.0118 5.5383 0.0000 0.0000 0.0000 8.8573 -10.3645 -79.0888 -34.0276 -14.4016 135.1291 0.8634 -16.7942 -1.4638 -0.5982 -4.9514 13.7699 -5.1369 0.1511 25.1004 -3.3411 -0.9221 13.8730 -0.4914 -0.6246 1.4836 -16.0359 -9.8026 -3.4665 17.5425 -12.6439 -3.0735 7.4007 -6.1843 1.8866 -0.0000 0.0000 0.0000 -54.5039 1.7069 74.6294 66.0987 -57.7274 -39.4588 -0.0000 0.0000 -7.2765 57.4934 16.3254 23.8030 -7.1250 0.0000 -0.0000 33.5167 55.2196 9.1627 -0.0000 0.0000 0.0000 65.2518 -0.6612 69.7455 -100.7346 59.5601 -69.2827 0.0000 0.0000 16.3043 -63.8454 9.1702 -17.9796 7.1250 -0.0000 -0.0000 -24.0345 -11.0378 -20.9761
0.00 0.00 0.00 0.2539 2.5490 -24.9850 0.0000 0.0000 0.0000 -5.3402 5.2753 -26.9565 11.2054 18.0341 63.4467 -0.0841 -9.3243 -4.8963 0.0546 1.5080 4.1478 0.0000 0.0000 0.0000 7.5513 -3.7132 -73.3405 -30.2365 -17.2747 121.3050 1.0783 -18.1017 -4.8721 -0.5986 -4.9528 13.7741 -5.1587 0.1509 24.9262 -3.2731 -0.9290 13.6181 -0.4002 -0.6277 1.2780 -15.8507 -9.8102 -3.5236 17.5373 -12.6919 -2.7030 7.3540 -6.2027 1.9988 -0.0000 -0.0000 0.0000 -54.4823 1.9415 75.2544 65.5520 -57.6165 -38.9968 -0.0000 0.0000 -7.6106 57.7305 16.3401 24.0158 -7.1250 0.0000 -0.0000 33.8747 55.3233 9.3678 -0.0000 -0.0000 0.0000 65.8453 -1.3909 68.5484 -100.4580 59.5827 -69.0442 0.0000 0.0000 13.7925 -64.2867 16.1893 -30.0701 7.1250 -0.0000 -0.0000 -22.0605 1.7376 -24.5976
0.00 0.00 0.00 0.1558 4.2089 -23.7875 0.0000 0.0000 0.0000 -5.7770 3.3446 -28.5902 11.6371 18.2330 64.8337 -0.0188 -9.1614 -6.0721 0.0468 1.3955 3.8378 0.0000 0.0000 0.0000 5.7036 4.3588 -52.2511 -18.0244 -19.9062 84.2151 0.7857 -16.0994 -1.1982 -0.0307 -1.1307 3.1084 -4.9681 -0.0021 23.0366 -3.0938 -0.9562 13.1003 -0.3115 -0.6307 1.5932 -16.0373 -9.7299 -3.6439 17.4123 -12.5923 -2.3035 7.3391 -6.1407 2.1192 -0.0000 -0.0000 0.0000 -55.4906 1.4550 74.7929 64.2175 -57.3329 -37.8716 -0.0000 0.0000 -7.6997 55.5238 16.1680 22.0733 -7.1250 0.0000 -0.0000 30.6319 54.3342 7.5642 -0.0000 -0.0000 0.0000 66.4764 -0.1298 68.4884 -93.0642 59.9645 -62.6534 0.0000 0.0000 2.2176 -53.6422 11.8282 -15.5601 7.1250 -0.0000 -0.0000 -17.4103 -11.1758 -14.4044
0.00 0.00 0.00 -5.1754 17.7036 0.0082 0.0000 0.0000 0.0000 -10.6145 -1.7704 -23.5511 4.5899 12.9065 39.0195 0.8101 -0.5469 -16.8336 0.1020 -2.0592 -5.6693 0.0000 0.0000 0.0000 8.0186 17.0998 -14.8883 -3.9485 -12.0915 36.0565 1.5284 -21.5357 -12.0716 -0.1561 2.5459 -7.0168 -2.4690 -0.8733 16.1063 -0.9559 -1.4623 6.9685 0.6406 -0.7302 -1.5847 -13.4775 -11.9137 -5.5147 19.0318 -16.2018 2.5365 6.8456 -7.7132 4.4007 0.0000 0.0000 0.0000 -59.5734 2.6432 77.0114 45.8174 -51.1627 -22.8737 -0.0000 -0.0000 15.9934 48.0341 9.9925 10.9206 -7.1250 0.0000 -0.0000 19.3784 43.8456 -0.5749 0.0000 0.0000 0.0000 70.7435 -6.4008 59.4407 -63.9829 57.2811 -37.6742 0.0000 -0.0000 -7.7727 -44.8312 10.6359 -10.3972 7.1250 -0.0000 -0.0000 -12.1559 -15.3680 -8.7006
0.00 0.00 0.00 -3.0690 13.2311 0.0989 0.0000 0.0000 0.0000 -16.9391 -1.6096 -10.0697 1.8005 8.4376 24.0514 0.6233 7.1060 -19.1649 0.0582 1.5567 4.2822 0.0000 0.0000 0.0000 8.1660 15.9506 -12.2745 -2.8626 -10.4692 30.5098 1.8646 -23.3192 -9.7930 -0.1860 -2.7776 7.6601 -4.1905 -1.3037 11.3746 -1.0987 -2.1589 4.7406 1.4778 -1.1018 -1.3062 -13.2676 -11.2727 -6.9715 18.4965 -15.4190 4.5224 6.6477 -7.1992 5.0437 0.0000 0.0000 0.0000 -68.5020 6.8830 54.7246 40.7212 -48.4914 -18.9775 -0.0000 -0.0000 21.4414 47.7580 12.6172 13.5253 -7.1250 0.0000 -0.0000 19.8615 47.3661 1.2051 0.0000 0.0000 0.0000 75.7754 -9.1274 43.5163 -57.3793 55.5702 -32.1698 0.0000 -0.0000 -8.5330 -43.9790 8.4307 -8.0527 7.1250 -0.0000 -0.0000 -12.0263 -18.4811 -7.7666
0.00 0.00 0.00 -0.2640 -38.1306 -0.1880 0.0000 0.0000 0.0000 -14.4918 16.5994 -20.8718 9.8371 17.3172 58.9426 -1.1147 19.0305 -12.8337 0.0757 -1.7744 -4.8827 0.0000 0.0000 0.0000 27.7962 18.5406 -2.8265 -2.4136 -9.6792 27.9439 -0.8368 5.6633 -16.3086 -0.2300 -3.0870 8.5211 -0.6365 -4.8007 3.7171 2.1690 -6.4205 1.4710 2.8102 -3.2297 -0.2432 -8.7000 -12.6302 -1.6735 8.9535 -20.2178 26.8945 2.3652 -9.6338 10.7577 -0.0000 0.0000 0.0000 -86.6177 8.4405 33.9978 37.8909 -46.7695 -16.8861 -0.0000 -0.0000 21.5728 25.4678 12.3868 5.8336 -7.1250 0.0000 -0.0000 -1.6336 43.6461 0.0546 -0.0000 0.0000 0.0000 80.1951 -13.5172 21.4261 -23.1920 34.2981 -7.2462 0.0000 0.0000 12.8402 -47.6048 11.9138 -12.7413 7.1250 -0.0000 -0.0000 -13.6676 -12.9562 -10.5671
0.00 0.00 0.00 1.9999 -64.2919 -0.6165 0.0000 0.0000 0.0000 -14.8141 -5.5384 -22.4239 6.2544 14.6704 45.9943 0.5203 4.6391 -16.1132 0.4447 -4.2789 -11.8626 0.0000 0.0000 0.0000 26.9934 25.9580 0.7402 -2.4527 -9.7514 28.1754 0.6214 20.2716 -8.4798 -0.6804 -5.2741 14.6920 1.7624 -3.8257 5.6964 2.6449 -5.0235 2.3289 2.0417 -2.5368 -0.6970 -7.4063 -11.7729 -0.4941 6.2249 -19.0166 28.2559 1.4876 -9.3375 10.4689 0.0000 -0.0000 0.0000 -84.5540 6.6341 30.8915 38.7264 -47.2970 -17.4974 -0.0000 -0.0000 18.4051 28.8431 13.4264 7.2874 -7.1250 0.0000 -0.0000 1.3759 45.2199 0.0075 0.0000 -0.0000 0.0000 79.3041 -10.4789 20.4592 -30.3092 41.1570 -11.6126 0.0000 0.0000 19.9810 -60.7524 12.7691 -21.5393 7.1250 -0.0000 -0.0000 -21.1999 -6.4065 -20.1711
0.00 0.00 0.00 4.4491 -72.6035 -1.4739 0.0000 0.0000 0.0000 -14.5477 -15.6353 -19.1063 2.8397 10.4309 30.3838 0.5512 -0.7504 -13.7874 0.7915 -5.6790 -15.8560 0.0000 0.0000 0.0000 25.3101 27.7532 1.2893 -2.1826 -9.2365 26.5378 1.4598 24.7477 -5.2281 -1.1206 -6.7245 18.9017 1.2602 -3.5199 6.2284 2.4628 -4.6474 2.6179 2.1350 -2.3556 -0.6784 -8.2255 -10.6836 -0.3986 6.6109 -17.6469 28.5071 1.9071 -8.7893 10.5442 -0.0000 0.0000 0.0000 -84.0258 5.6829 29.0926 36.3453 -45.7492 -15.7693 -0.0000 -0.0000 15.0988 30.3528 14.2557 8.2056 -7.1250 0.0000 -0.0000 2.7317 46.3677 0.0923 -0.0000 0.0000 0.0000 78.0705 -9.0503 21.8055 -30.0570 40.9422 -11.4470 0.0000 0.0000 21.3895 -60.3721 8.7258 -14.9358 7.1250 -0.0000 -0.0000 -22.2788 -13.5480 -17.8759
